<mxfile host="app.diagrams.net" modified="2023-08-26T21:04:57.125Z" agent="Mozilla/5.0 (Macintosh; Intel Mac OS X 10_15_7) AppleWebKit/537.36 (KHTML, like Gecko) Chrome/114.0.0.0 Safari/537.36" version="21.1.0" etag="oSQ_sebgCO0v6ygrFYj8" type="github">
  <diagram name="Page-1" id="KfFP_p3hdFNJuKBjGFHU">
    <mxGraphModel>
      <root>
        <mxCell id="0" />
        <mxCell id="1" parent="0" />
      </root>
    </mxGraphModel>
  </diagram>
</mxfile>
